<?xml version="1.0" encoding="utf-8"?>
<!-- Generator: Adobe Illustrator 19.2.1, SVG Export Plug-In . SVG Version: 6.00 Build 0)  -->
<!DOCTYPE svg PUBLIC "-//W3C//DTD SVG 1.1//EN" "http://www.w3.org/Graphics/SVG/1.1/DTD/svg11.dtd">
<svg version="1.1" xmlns="http://www.w3.org/2000/svg" xmlns:xlink="http://www.w3.org/1999/xlink" x="0px" y="0px"
	 viewBox="0 0 912 425.9" style="enable-background:new 0 0 912 425.9;" xml:space="preserve">
<style type="text/css">
	.st0{fill:#FEBF4B;}
	.st1{fill-rule:evenodd;clip-rule:evenodd;fill:#FEBF4B;}
</style>
<g id="Layer_1">
</g>
<g id="Layer_2">
	<path d="M883.5,384.6c0,5-1.6,8.9-4.9,11.7c-3.3,2.8-8.5,4.2-15.6,4.3c-7.1,0-12.3-1.5-15.6-4.3c-3.3-2.8-4.9-6.7-4.9-11.7v-47.9
		c0-5,1.6-8.9,4.9-11.7c3.3-2.8,8.5-4.3,15.6-4.3c7.1,0,12.3,1.5,15.6,4.3c3.3,2.8,4.9,6.7,4.9,11.7V384.6L883.5,384.6z M912,334.2
		c0-4.9-0.9-9.6-2.6-14.2c-1.8-4.6-4.6-8.7-8.5-12.4c-3.9-3.7-8.9-6.7-15.2-8.8c-6.2-2.2-13.9-3.3-22.8-3.4
		c-8.9,0.1-16.5,1.2-22.8,3.4c-6.2,2.2-11.3,5.1-15.2,8.8c-3.9,3.7-6.7,7.8-8.5,12.4c-1.8,4.6-2.7,9.3-2.6,14.2v52.9
		c0,4.9,0.9,9.6,2.6,14.2c1.8,4.6,4.6,8.7,8.5,12.4c3.9,3.7,8.9,6.7,15.2,8.8c6.3,2.2,13.9,3.3,22.8,3.4c8.9-0.1,16.5-1.2,22.8-3.4
		c6.2-2.2,11.3-5.1,15.2-8.8c3.9-3.7,6.7-7.8,8.5-12.4c1.8-4.6,2.7-9.3,2.6-14.2V334.2L912,334.2z M743.3,338.7
		c0-3.7,0.4-6.9,1.5-9.5c1-2.6,2.8-4.6,5.4-6c2.6-1.4,6.2-2.1,10.8-2.1c3.1,0,6.4,0.1,10.1,0.3c3.6,0.3,7.4,0.6,11.3,1
		c3.9,0.5,7.6,1,11.4,1.6l4-24.9c-6.2-1.3-12.3-2.3-18.3-3c-6-0.7-12.1-1-18.4-1c-10.6,0.1-19.4,1.7-26.2,4.9
		c-6.8,3.2-11.9,7.8-15.2,13.6c-3.3,5.8-4.9,12.6-4.9,20.3v52.9c0,7.7,1.6,14.5,4.9,20.3c3.3,5.8,8.3,10.3,15.2,13.6
		c6.8,3.2,15.6,4.9,26.2,4.9c6.3,0,12.5-0.4,18.4-1c6-0.7,12.1-1.6,18.3-3l-4-24.9c-3.7,0.6-7.5,1.2-11.4,1.6
		c-3.9,0.4-7.6,0.8-11.3,1c-3.6,0.3-7,0.4-10.1,0.4c-4.7,0-8.3-0.7-10.8-2.1c-2.6-1.4-4.4-3.4-5.4-6c-1-2.6-1.5-5.8-1.5-9.5V338.7
		L743.3,338.7z M692.9,424v-31.6h-27.4V424H692.9z"/>
</g>
<g id="Layer_3">
	<path class="st0" d="M640.8,424V297.3h-28.5v50.4h-40.9v-50.4h-28.5V424h28.5v-51h40.9v51H640.8L640.8,424z M492.4,384.6
		c0,5-1.6,8.9-4.9,11.7c-3.3,2.8-8.5,4.2-15.6,4.3c-7.1,0-12.3-1.5-15.6-4.3c-3.3-2.8-4.9-6.7-4.9-11.7v-47.9c0-5,1.6-8.9,4.9-11.7
		c3.3-2.8,8.5-4.3,15.6-4.3c7.1,0,12.3,1.5,15.6,4.3c3.3,2.8,4.9,6.7,4.9,11.7V384.6L492.4,384.6z M520.9,334.2
		c0-4.9-0.9-9.6-2.6-14.2c-1.8-4.6-4.6-8.7-8.5-12.4c-3.9-3.7-8.9-6.7-15.2-8.8c-6.2-2.2-13.9-3.3-22.8-3.4
		c-8.9,0.1-16.5,1.2-22.8,3.4c-6.2,2.2-11.3,5.1-15.2,8.8c-3.9,3.7-6.7,7.8-8.5,12.4c-1.8,4.6-2.7,9.3-2.6,14.2v52.9
		c0,4.9,0.9,9.6,2.6,14.2c1.8,4.6,4.6,8.7,8.5,12.4c3.9,3.7,8.9,6.7,15.2,8.8c6.3,2.2,13.9,3.3,22.8,3.4c8.9-0.1,16.5-1.2,22.8-3.4
		c6.2-2.2,11.3-5.1,15.2-8.8c3.9-3.7,6.7-7.8,8.5-12.4c1.8-4.6,2.7-9.3,2.6-14.2V334.2z"/>
</g>
<g id="Layer_4">
	<path d="M410.9,322.6v-25.3h-96.6v25.3h34.1V424h28.5V322.6H410.9L410.9,322.6z M304.4,388.4c0-4.9-0.1-9.3-0.4-12.9
		c-0.4-3.7-1.1-6.9-2.3-9.5c-1.2-2.7-3.1-5-5.7-7c-2.6-2-6.1-3.8-10.6-5.5c-4.5-1.6-10.1-3.3-16.9-4.9c-4.9-1.1-8.8-2.1-11.6-3
		c-2.8-0.8-4.9-1.8-6.1-2.8c-1.3-1-2.1-2.4-2.4-4.2c-0.3-1.7-0.5-4.1-0.4-7.1c0-3.1,0.3-5.5,1.2-7.2c0.9-1.7,2.4-2.9,4.7-3.5
		c2.3-0.6,5.5-1,9.7-0.9c3.8,0,7.4,0.1,11,0.4c3.6,0.3,7.3,0.7,11.2,1.2c3.9,0.5,8.2,1.2,13,2l2.9-24c-7.1-1.5-13.9-2.6-20.4-3.2
		c-6.5-0.7-12.5-1-18.1-1c-8.7,0-15.8,0.6-21.5,2c-5.7,1.3-10.1,3.4-13.4,6.2c-3.2,2.8-5.6,6.5-6.9,11c-1.3,4.5-2,9.9-1.9,16.2
		c0,5.5,0.2,10.1,0.7,14c0.5,3.9,1.5,7.3,2.9,10c1.4,2.8,3.4,5.1,6,7c2.6,1.9,6,3.6,10.2,5c4.2,1.4,9.3,2.8,15.4,4.1
		c5.1,1.1,9.2,2.1,12.1,3c2.9,0.9,5,1.9,6.3,3.1c1.3,1.1,2.2,2.6,2.5,4.3c0.3,1.8,0.5,4.1,0.4,6.9c0,2.7-0.2,4.9-0.7,6.6
		c-0.5,1.8-1.3,3.1-2.6,4.2c-1.2,1-3,1.7-5.3,2.2c-2.3,0.4-5.3,0.6-8.9,0.6c-6.5,0-12.8-0.6-18.8-1.7c-6-1.1-11.9-2.6-17.7-4.4
		l-4.8,22.1c3.6,1.6,7.7,3.1,12.2,4.3c4.5,1.2,9.1,2.2,14,2.8c4.9,0.7,9.8,1,14.7,1c7.6,0,14.1-0.5,19.5-1.5c5.4-1,9.9-2.5,13.4-4.5
		c3.5-2,6.3-4.5,8.2-7.5c2-3,3.4-6.5,4.2-10.5C304,397.9,304.4,393.4,304.4,388.4L304.4,388.4z M148.8,322.4l14.5,53.1h-29.1
		L148.8,322.4L148.8,322.4z M167.8,297.3h-38L91.1,424h29.7l6.8-24.7h42.4l6.8,24.7h29.7L167.8,297.3L167.8,297.3z M79.7,424v-25.3
		H28.5v-27.6h47.2v-25.3H28.5v-23.2h51.2v-25.3H0V424H79.7z"/>
</g>
<g id="Layer_5">
	<path class="st1" d="M670.5,209.2l0.5-1.1c7-15.5,15.6-30.2,26-43.7c4.8-6.2,10.3-12.2,16.6-16.9c-1.4-1.2-2.8-2.3-4.2-3.4
		c-2.8-2.2-5.9-4.3-9.1-6.2c-2.1,1.8-4.1,3.6-6,5.5l-2.9-20c8.7,2.5,16.9,7.4,24,12.9c11.6,9,21.7,20.4,30.3,32.3
		c7.9,11,15,22.5,21.6,34.3c1.2,2.1,2.4,4.3,3.5,6.4C737.5,209.1,704.1,209.1,670.5,209.2L670.5,209.2z M783.4,199.4v-21.2
		l-11.5,1.4c3.2,5.2,6.2,10.4,9.2,15.7C781.9,196.6,782.6,198,783.4,199.4L783.4,199.4z M783.4,169v-11.8c-1.9-1.6-3.8-3.2-5.7-4.7
		c-1.4-1.1-2.9-2.2-4.4-3.2l-1.6,21.1L783.4,169L783.4,169z M783.4,137.1c-10.5-7.4-22.4-13.1-35.3-14.7c-3.4-0.4-6.7-0.5-10-0.4
		c6.4,5.6,12.3,11.8,17.8,18.3c2.9,1,5.8,2.2,8.5,3.6l-1.6,21.7c-1.4-2.1-2.9-4.2-4.4-6.3c-9.4-13.1-20.6-25.7-33.4-35.6
		c-11.4-8.8-24.7-15.8-39.2-17.6c-15.7-2-30.1,2.5-42.8,11.7c-8,5.7-14.8,12.9-20.8,20.6c-11.1,14.5-20.3,30.3-27.9,46.9
		c-1.6,3.6-3.2,7.2-4.6,10.8c-3.9-6.3-7.9-12.6-12.1-18.8l9.4-43c4.9,5.6,9.7,11.3,14.4,17.1c3.9-6.3,8.2-12.5,12.7-18.4
		c-24.3-29.3-51.7-55.9-81.4-79.7c-2-1.6-4.1-3.2-6.1-4.7c-30.1-22.1-64.2-32.3-100.4-24.3c12.8,4.7,25.2,11.4,37,19.8
		c5.1,0.7,10.1,1.8,15,3.4l0.8,20.4c-4.3-3.6-8.7-7.2-13.1-10.8c-2-1.6-4.1-3.2-6.1-4.7c-31.8-23.3-68-33.4-106.6-22.8
		c-35.6,9.8-65.7,35.4-88.3,63.8c-2.4,3.1-4.8,6.1-7.1,9.3c-13.7,18.7-25,39.2-34.8,60.1c-5.1,10.9-9.9,22-14.5,33.2l-3.5,8.5
		l-4.4-8.1c-1.6-3-3.3-5.9-5-8.8c-1.3-2.1-2.6-4.2-3.9-6.3l21.9-24.8c0.6,0.6,1.3,1.1,1.9,1.7c3.2-6.7,6.5-13.3,9.9-19.8
		c-3.6-2.9-7.3-5.6-11.4-7.8c-12.4-7-25.8-9.5-39.8-6.2c-5.7,1.4-11.1,3.6-16.1,6.5c5.6,3.9,10.8,8.4,15.5,13.3
		c0.7,0.7,1.3,1.4,2,2.1c1.2-0.4,2.4-0.8,3.6-1.1c0.8-0.2,1.6-0.3,2.3-0.5l0.3,22.3c-4.5-5.9-9.3-11.5-14.4-16.8
		c-6-6.2-12.7-11.8-20.2-16c-12.4-7-25.8-9.5-39.8-6.2c-12.6,3-23.7,10.4-33,19.4c-10,9.7-18.4,21.6-25.3,33.7
		c-5.9,10.5-11,21.3-15.7,32.3c-4,9.5-7.7,19.2-11.2,29l0.3,0.1c-7.5,0.9-15,1.7-22.5,2.6l0.5,8c13.7-1.4,27.3-2.8,41-4l1,0.4
		l0.2-0.5c207.4-18.9,416.8-16.5,617.4-6.8l0.1,0.2l0.3-0.1c85.8,4.2,169.9,9.7,251.6,15.5v-47.3c-10.3-0.2-20.7-0.3-31-0.5V29.8
		h-6.9c1.4-2.2,2.2-4.7,2.2-7.5c0-5-2.6-9.3-6.5-11.8c0.3-0.8,0.5-1.8,0.5-2.7c0-4.3-3.5-7.8-7.8-7.8c-4.3,0-7.8,3.5-7.8,7.8
		c0,1,0.2,1.9,0.5,2.7c-3.9,2.4-6.5,6.8-6.5,11.8c0,2.8,0.8,5.3,2.2,7.5h-7.3V210l-0.9,0c-6.7-11.8-13.9-23.4-21.8-34.5
		c-1-1.4-2-2.7-3-4.1V27.3h-6.5c1.3-2,2-4.3,2-6.9c0-4.5-2.4-8.5-6-10.8c0.3-0.8,0.4-1.6,0.4-2.5c0-4-3.2-7.2-7.2-7.2
		c-3.9,0-7.2,3.2-7.2,7.2c0,0.9,0.2,1.7,0.4,2.5c-3.6,2.2-6,6.2-6,10.8c0,2.5,0.7,4.9,2,6.9h-6.5V137.1L783.4,137.1z M817.8,199.2
		c2.2,3.5,4.4,7,6.5,10.6l-6.5-0.1V199.2L817.8,199.2z M683.1,156.6l-30.8-15.7l16.6,37.1C673.2,170.6,678,163.4,683.1,156.6
		L683.1,156.6z M663.3,187.9c-1.5,2.8-2.9,5.7-4.3,8.6c-7-11.7-14.5-23-22.4-34.1c-4.4,6.4-8.5,13.1-12.2,20
		c6.1,8.8,11.8,17.8,17.3,26.9c-13.4,0.1-26.8,0.2-40.2,0.3c2.2-5.9,4.6-11.8,7.2-17.6c7-15.5,15.6-30.2,26-43.7
		c2.2-2.9,4.6-5.7,7.1-8.4L663.3,187.9L663.3,187.9z M652.4,130.7l33.3,16.9l-3.8-25.9C671.2,121,661.2,124.4,652.4,130.7
		L652.4,130.7z M110.5,149.7c0.6-0.2,1.2-0.3,1.7-0.5c8.5-2,16.8-0.3,24.4,4c5.7,3.2,10.8,7.6,15.3,12.3c9.7,10.1,18,21.3,25.2,33.3
		c5.4,9,10,18.4,14.2,28c-25.7,2-51.5,4.2-77.3,6.6c2.1-5.7,2.8-7.4,6-15c4.3-10.3,9.1-20.4,14.6-30.2c3.2-5.7,6.8-11.4,10.9-16.8
		c-3.9-4-8.3-7.9-13.2-10.7c-1.3-0.8-2.7-1.4-4.1-2c-2.8,3.8-5.5,7.7-8,11.7L110.5,149.7L110.5,149.7z M110.8,187.4
		c-3,5.9-5.8,11.9-8.5,18l-23.9-21.7L110.8,187.4L110.8,187.4z M95.1,222.8c-1.7,4.3-3.3,8.6-4.8,12.9c-14.8,1.5-29.5,3-44.3,4.6
		c1.2-3.3,2.5-6.7,3.8-9.9L95.1,222.8L95.1,222.8z M53.9,220.4c4.2-9.7,8.7-19.2,13.9-28.5c0.7-1.2,1.4-2.5,2.1-3.7l27.4,24.9
		L53.9,220.4L53.9,220.4z M79.1,174.6c3.1-4.1,6.5-7.9,10.1-11.4c3.8-3.7,8.1-7.2,12.9-9.8l11.8,25.3L79.1,174.6L79.1,174.6z
		 M348.9,53.9c3.3-1.3,6.6-2.4,10-3.3c31.8-8.8,62,0.1,88.2,19.3c1.8,1.3,3.7,2.7,5.4,4.2c23.7,19,45.8,39.7,66,62.3l-0.1,0.9
		l0.8-0.2c5.6,6.3,11,12.7,16.3,19.2c13.7,17.1,26.2,35,37.6,53.6c-94.3,1.4-189.5,4.4-285.7,10.2c6.8-17.5,13.9-34.8,21.9-51.8
		c9.3-19.6,19.8-39,32.7-56.5c2.1-2.9,4.3-5.8,6.6-8.6c14.1-17.6,31.5-34.4,51.6-45.7c-12.5-2.5-25.5-2.3-38.8,1.4
		c-3.4,2.9-6.7,5.9-9.8,9.1L348.9,53.9L348.9,53.9z M331.5,90.2c-2.4,3-4.7,6-6.9,9c-1.3,1.8-2.7,3.7-3.9,5.5L311,84.1L331.5,90.2
		L331.5,90.2z M307,126.2c-3.9,6.8-7.6,13.6-11.2,20.6l-15.7-27.7L307,126.2L307,126.2z M285.1,169.3c-3.4,7.7-6.7,15.4-9.9,23.2
		l-3.5,8.5l-4.4-8.1c-1.6-3-3.3-5.9-5-8.8c-2.9-4.9-6-9.7-9.3-14.3c-1,2-1.9,4-2.9,6.1c-2.6,5.6-5.2,11.2-7.6,16.9
		c0.5,0.8,0.9,1.5,1.4,2.3c5.2,8.7,9.7,17.7,13.8,27c-12.5,0.8-25,1.7-37.6,2.6c6.9-17.7,14.1-35.3,22.2-52.5
		c1.4-2.9,2.8-5.8,4.2-8.7L285.1,169.3L285.1,169.3z M253.1,150.6c4.6-8.6,9.6-17,15-25.1l16.9,29.9L253.1,150.6L253.1,150.6z
		 M282.6,105.7c4.8-5.9,9.9-11.7,15.4-17.2l11.2,24.1L282.6,105.7L282.6,105.7z M317.3,71.7c6-4.5,12.2-8.5,18.7-11.9l3.2,18.5
		L317.3,71.7L317.3,71.7z M190.5,145c4.5,0.6,8.8,2.2,12.9,4.5c0.9,0.5,1.9,1.1,2.8,1.7l-15.4,17.4L190.5,145L190.5,145z M492,53.1
		c7.6,3.5,14.9,7.9,21.9,13.1c1.5,1.1,3,2.2,4.5,3.4l-25.6,5.8L492,53.1L492,53.1z M538.9,86.7c9.3,8.2,18.3,16.6,27.1,25.4
		l-31.4,7.4L538.9,86.7L538.9,86.7z M567,162.4c-4.8-6.6-9.7-13-14.8-19.3c-3.1-3.9-6.3-7.7-9.5-11.4l32.6-7.7L567,162.4L567,162.4z
		 M522.2,108.8c-6.9-7.3-14.1-14.3-21.4-21.2l25-5.6L522.2,108.8z"/>
</g>
</svg>
